<?xml version="1.0" standalone="no"?>
<!DOCTYPE svg PUBLIC "-//W3C//DTD SVG 20010904//EN"
 "http://www.w3.org/TR/2001/REC-SVG-20010904/DTD/svg10.dtd">
<svg version="1.0" xmlns="http://www.w3.org/2000/svg"
 width="279.000000pt" height="310.000000pt" viewBox="0 0 279.000000 310.000000"
 preserveAspectRatio="xMidYMid meet">

<g transform="translate(0.000000,310.000000) scale(0.100000,-0.100000)"
fill="#000000" stroke="none">
<path d="M2108 2623 l-268 -268 0 -807 c0 -445 0 -811 0 -815 0 -5 78 -8 173
-8 196 0 226 7 287 65 80 76 75 18 78 915 1 440 1 887 0 993 l-3 192 -267
-267z"/>
<path d="M737 1922 l-537 -537 0 -543 0 -542 543 2 542 3 3 1078 c1 592 -1
1077 -6 1077 -4 0 -249 -242 -545 -538z"/>
</g>
</svg>
