<?xml version="1.0" standalone="no"?>
<!DOCTYPE svg PUBLIC "-//W3C//DTD SVG 20010904//EN"
 "http://www.w3.org/TR/2001/REC-SVG-20010904/DTD/svg10.dtd">
<svg version="1.0" xmlns="http://www.w3.org/2000/svg"
 width="1600.000000pt" height="1200.000000pt" viewBox="0 0 1600.000000 1200.000000"
 preserveAspectRatio="xMidYMid meet">

<g transform="translate(0.000000,1200.000000) scale(0.100000,-0.100000)"
fill="#000000" stroke="none">
<path d="M4098 7023 l-268 -268 0 -819 0 -818 178 4 c161 3 181 5 225 26 26
13 61 40 77 60 62 75 60 42 58 1110 l-3 972 -267 -267z"/>
<path d="M2732 6327 l-542 -542 0 -543 0 -542 545 0 545 0 0 1085 c0 597 -1
1085 -3 1085 -1 0 -246 -244 -545 -543z"/>
<path d="M8630 5945 l0 -745 110 0 110 0 0 240 0 240 39 0 c22 0 46 -3 55 -6
9 -3 88 -105 177 -226 89 -120 172 -226 184 -234 17 -11 49 -14 130 -12 l107
3 -187 255 c-103 140 -199 267 -212 282 l-26 27 204 228 203 228 -103 3 c-68
2 -111 -2 -129 -10 -14 -7 -100 -96 -189 -198 -162 -185 -163 -185 -208 -188
l-45 -3 0 430 0 431 -110 0 -110 0 0 -745z"/>
<path d="M10560 5945 l0 -745 110 0 110 0 0 378 0 379 38 30 c57 46 119 74
177 80 74 8 120 -3 160 -38 61 -54 65 -86 65 -481 l0 -349 108 3 107 3 3 305
c2 176 -2 345 -8 400 -18 155 -72 245 -178 297 -51 25 -67 28 -162 28 -97 0
-110 -2 -170 -31 -36 -17 -83 -46 -103 -64 l-37 -32 0 291 0 291 -110 0 -110
0 0 -745z"/>
<path d="M12760 5945 l0 -745 110 0 110 0 0 745 0 745 -110 0 -110 0 0 -745z"/>
<path d="M13543 6651 c-146 -50 -217 -158 -230 -347 l-6 -94 -74 0 -73 0 0
-60 c0 -69 7 -76 94 -86 l56 -7 0 -428 0 -429 110 0 110 0 0 430 0 430 135 0
135 0 0 75 0 75 -140 0 -140 0 0 58 c1 114 31 187 92 218 17 9 64 18 104 21
41 3 79 12 84 19 6 7 10 38 8 70 -3 52 -6 59 -28 65 -51 14 -184 9 -237 -10z"/>
<path d="M5080 5925 l0 -727 338 4 c369 5 385 7 505 70 202 108 270 393 133
556 -35 41 -100 79 -172 102 l-56 17 54 26 c75 37 128 86 163 148 28 50 30 62
30 154 0 83 -4 109 -24 152 -27 61 -103 136 -164 163 -110 49 -146 53 -484 57
l-323 5 0 -727z m665 504 c83 -42 124 -152 96 -256 -33 -122 -142 -167 -396
-161 l-130 3 -3 223 -2 224 193 -4 c184 -3 195 -4 242 -29z m-55 -589 c81 -13
147 -52 178 -105 19 -34 22 -52 20 -121 -4 -101 -32 -150 -111 -191 -51 -28
-55 -28 -259 -31 l-208 -3 0 224 c0 123 3 227 7 230 10 11 301 8 373 -3z"/>
<path d="M6633 6225 c-221 -62 -353 -252 -353 -510 0 -209 92 -385 241 -465
85 -45 149 -60 259 -60 154 0 262 41 355 134 168 168 191 516 47 725 -44 65
-130 131 -210 162 -74 29 -260 36 -339 14z m274 -180 c52 -26 87 -67 120 -140
15 -33 18 -67 18 -190 0 -150 0 -151 -33 -218 -51 -104 -117 -141 -245 -140
-122 2 -207 68 -244 191 -26 85 -23 268 5 346 45 124 119 176 253 176 60 0 85
-5 126 -25z"/>
<path d="M7781 6224 c-222 -59 -351 -247 -351 -509 0 -169 46 -292 144 -391
99 -98 192 -133 357 -134 305 -1 492 199 492 525 0 267 -127 450 -354 510 -69
19 -218 18 -288 -1z m265 -173 c52 -24 109 -90 131 -155 25 -71 25 -301 0
-366 -47 -120 -125 -174 -251 -173 -127 1 -200 52 -247 170 -20 50 -23 76 -23
188 0 113 3 138 23 189 27 69 90 137 141 153 58 18 179 15 226 -6z"/>
<path d="M9887 6229 c-88 -21 -182 -91 -219 -163 -26 -51 -36 -168 -18 -221
16 -48 82 -120 135 -147 22 -12 91 -38 154 -59 62 -21 133 -50 156 -64 78 -45
82 -130 10 -194 -65 -57 -194 -55 -302 4 -90 49 -117 46 -160 -20 -18 -27 -33
-52 -33 -55 0 -12 105 -73 158 -91 130 -45 264 -44 388 2 183 69 263 313 147
448 -47 56 -102 86 -240 132 -64 21 -135 50 -158 64 -46 27 -71 70 -61 109 9
38 53 83 93 97 60 19 168 6 244 -30 38 -18 73 -29 83 -25 17 6 76 85 76 101 0
23 -117 89 -195 109 -56 15 -200 17 -258 3z"/>
<path d="M11970 6222 c-160 -53 -257 -150 -312 -310 -30 -88 -32 -275 -4 -367
70 -234 233 -355 480 -355 155 0 279 41 370 121 l41 36 -39 48 c-21 25 -45 49
-53 52 -8 3 -56 -14 -106 -38 -83 -40 -100 -44 -180 -48 -104 -4 -159 13 -217
65 -47 43 -91 139 -97 215 l-6 59 346 0 c252 0 348 3 353 12 4 6 7 48 6 92 -3
194 -99 344 -259 407 -81 31 -245 37 -323 11z m268 -164 c23 -11 54 -35 68
-54 27 -35 54 -111 54 -151 l0 -23 -255 0 -255 0 6 28 c21 86 68 159 124 191
78 44 176 47 258 9z"/>
</g>
</svg>
